<svg id="Layer_1" data-name="Layer 1" xmlns="http://www.w3.org/2000/svg" viewBox="0 0 500 500"><defs><style>.cls-1{fill:#fff;}</style></defs><title>flyingToucan Final SVG</title><path class="cls-1" d="M387.054,144.08a1.558,1.558,0,0,0,.071-.162c.014-.044.021-.089.032-.134a1.577,1.577,0,0,0,.033-.169,1.3,1.3,0,0,0,0-.14,1.247,1.247,0,0,0,0-.137c-2.456-34.15-13.418-62.935-31.7-83.242-20.346-22.6-48.53-34.06-83.77-34.06H213.4c-.015,0-.029,0-.044,0A98.852,98.852,0,0,0,150.446,49.4c-18.257,15.5-28.31,35.632-28.31,56.684a65.877,65.877,0,0,0,.515,8.137,169.793,169.793,0,0,0-9.851,57.245,160.27,160.27,0,0,0,22.705,82.694c17.863,29.721,44.932,52.188,76.3,63.377l.1,149.982a6.379,6.379,0,0,0,4.165,6.023,6.474,6.474,0,0,0,2.286.419,6.371,6.371,0,0,0,4.808-2.2c62.667-71.563,103.3-133.373,120.755-183.713,10.887-31.387,4.278-66.093-18.133-95.218A132.353,132.353,0,0,0,251.1,144.985l80.021-.023h0l54.579-.016a1.536,1.536,0,0,0,.312-.033c.032-.007.061-.021.092-.03a1.474,1.474,0,0,0,.2-.067c.032-.014.062-.036.094-.053a1.4,1.4,0,0,0,.175-.1c.029-.021.053-.047.081-.07a1.5,1.5,0,0,0,.141-.123l.013-.017.009-.009c.022-.025.037-.054.057-.08A1.562,1.562,0,0,0,387,144.2C387.02,144.161,387.035,144.12,387.054,144.08Zm-54.43-2.119V66.679c28.731,4.254,45.558,28.9,51.385,75.267l-7.283,0ZM214.9,184.467a1.5,1.5,0,0,0-.19-.718l0-3.444a68.34,68.34,0,0,1,.1,135.611Zm-3-155.416-.176,127.458a1.514,1.514,0,0,0-.031.3l.011,14.488-.011,7.3c0,.028.014.053.015.081l0,4.251c-.487-.009-.973-.009-1.461-.026a93.077,93.077,0,0,1-22.1-3.527q-1.569-.448-3.115-.943c-.628-.2-1.246-.42-1.867-.634-.4-.136-.8-.263-1.194-.4q-1.388-.5-2.75-1.033c-.085-.034-.173-.064-.259-.1-.66-.26-1.309-.537-1.96-.81-.331-.139-.667-.269-.995-.411-.663-.287-1.316-.59-1.97-.891-.307-.141-.619-.273-.923-.417-.727-.343-1.442-.7-2.156-1.06-.225-.113-.454-.219-.677-.333-.767-.393-1.523-.8-2.276-1.213-.163-.089-.331-.173-.494-.263-.76-.421-1.508-.857-2.253-1.3-.149-.088-.3-.171-.451-.26q-2.661-1.588-5.184-3.33l-.018-.012q-1.2-.829-2.368-1.693c-.041-.03-.084-.059-.126-.09q-2.439-1.806-4.727-3.747l-.032-.026a87,87,0,0,1-8.509-8.275c-.012-.013-.025-.026-.037-.04q-1.921-2.148-3.667-4.4c-.027-.034-.056-.067-.082-.1q-.855-1.106-1.664-2.234c-.023-.032-.048-.063-.07-.095-.52-.724-1.022-1.457-1.514-2.2-.041-.061-.085-.12-.126-.182-.469-.709-.921-1.426-1.365-2.147-.057-.093-.119-.184-.175-.277-.427-.7-.835-1.407-1.237-2.118-.066-.117-.138-.232-.2-.349-.379-.679-.739-1.365-1.094-2.053-.079-.153-.165-.3-.243-.456-.325-.639-.63-1.286-.934-1.932-.1-.207-.2-.41-.3-.617-.288-.629-.557-1.265-.826-1.9-.1-.229-.2-.454-.3-.683-.254-.616-.486-1.238-.721-1.86-.095-.253-.2-.5-.292-.757-.217-.6-.413-1.2-.612-1.8-.094-.285-.2-.566-.289-.851-.177-.561-.334-1.127-.5-1.691-.095-.33-.2-.658-.289-.989-.139-.514-.257-1.032-.383-1.55-.094-.385-.2-.769-.285-1.156-.111-.494-.2-.993-.3-1.49-.082-.412-.174-.823-.248-1.237-.084-.474-.148-.951-.222-1.428-.068-.441-.146-.881-.2-1.324l0-.034a62.7,62.7,0,0,1-.532-8.11C125.136,65.481,165.509,29.809,211.9,29.051ZM138.076,252.617A157.276,157.276,0,0,1,115.8,171.469a168.953,168.953,0,0,1,7.91-51.142q.3,1.356.665,2.7c.079.3.172.595.256.893.172.6.342,1.211.53,1.812.109.35.231.7.346,1.045.18.545.358,1.09.552,1.632.131.367.274.732.412,1.1.195.517.389,1.034.6,1.548.15.373.31.744.468,1.115.212.5.425,1,.648,1.5.168.374.344.744.518,1.116.231.49.464.98.706,1.466.184.37.374.738.564,1.1.249.481.5.961.763,1.438.2.366.4.729.608,1.092q.4.711.821,1.414.32.538.649,1.072.433.7.883,1.4c.225.349.451.7.683,1.043.311.465.63.927.952,1.388.234.335.468.671.708,1,.336.465.68.925,1.026,1.385.243.321.482.643.729.961.364.469.739.932,1.114,1.394.243.3.483.6.73.9.405.484.82.961,1.236,1.438.233.267.461.537.7.8.475.531.963,1.053,1.452,1.574.19.2.375.41.568.611q2.073,2.167,4.313,4.215c.194.177.4.348.591.523.553.5,1.109.993,1.676,1.479.277.237.562.466.842.7.5.416,1,.831,1.5,1.238.318.254.643.5.965.753.482.376.964.752,1.456,1.119.344.258.695.51,1.044.764.48.349.961.7,1.45,1.04.365.255.735.5,1.1.756.485.329.97.656,1.463.978.381.249.766.493,1.151.737q.739.468,1.486.924.591.36,1.19.711.753.444,1.515.875.609.343,1.224.681.768.42,1.548.827c.416.218.832.435,1.252.648.525.266,1.054.524,1.585.781.424.205.846.411,1.274.611.542.253,1.089.5,1.636.741.425.189.849.38,1.277.564.565.243,1.137.475,1.709.708.42.171.838.346,1.262.512.6.235,1.209.459,1.816.684.4.148.8.3,1.206.446.677.241,1.36.467,2.044.693.345.115.685.236,1.032.347q1.549.5,3.123.946a95.705,95.705,0,0,0,24.389,3.68l.089,128.411C181.514,303.283,155.391,281.427,138.076,252.617Zm185.34-57.953c21.782,28.309,28.226,61.989,17.676,92.405-17.333,49.973-57.767,111.448-120.179,182.72a3.426,3.426,0,0,1-6-2.267l-.1-148.6a71.349,71.349,0,0,0-.1-141.655l0-5.922L214.742,145l16.417,0A129.11,129.11,0,0,1,323.416,194.664Zm-108.67-52.758.156-112.87h56.827c46.4,0,81.058,21.636,99.078,59.9-9.44-15.034-22.553-23.45-39.506-25.463a1.5,1.5,0,0,0-1.677,1.489v77l-98.345.029A124.415,124.415,0,0,0,214.746,141.906Z"/><path class="cls-1" d="M177.032,91.232A20.853,20.853,0,1,0,156.18,70.379,20.877,20.877,0,0,0,177.032,91.232Zm0-38.7A17.853,17.853,0,1,1,159.18,70.379,17.873,17.873,0,0,1,177.032,52.527Z"/></svg>