<svg id="Layer_1" data-name="Layer 1" xmlns="http://www.w3.org/2000/svg" viewBox="0 0 500 500"><defs><style>.cls-1{fill:none;stroke:#000;stroke-miterlimit:10;}.cls-2{fill:#0f0d3d;}.cls-3{fill:#fbe7b5;}.cls-4{fill:#ff7c31;}</style></defs><title>flyingToucan Final SVG</title><line class="cls-1" x1="178.324" y1="117.852" x2="178.324" y2="117.842"/><path class="cls-2" d="M213.243,143.5c82.749-6.2,154.266,71.984,129.265,144.064-22.758,65.614-80.629,137.724-120.467,183.217a4.926,4.926,0,0,1-8.63-3.254l-.217-310.711"/><path class="cls-3" d="M276.067,248.051a69.978,69.978,0,0,1-62.761,69.542l.1-133.128a93.986,93.986,0,0,1-25.666-3.641C155.363,171.6,128.307,145.8,124.18,114.4v-.01a63.928,63.928,0,0,1-.546-8.3c0-43.376,44.161-78.548,89.769-78.548L213.194,178.6A69.991,69.991,0,0,1,276.067,248.051Z"/><path class="cls-4" d="M213.4,27.534h58.325c73.129,0,109.3,50.867,113.974,115.911l-172.459.05"/><path class="cls-2" d="M331.123,143.461v-78.5c33.525,3.981,49.264,33.69,54.579,78.48Z"/><path class="cls-2" d="M213.4,184.465l-.1,132.021c-31.908-11.1-58.806-33.63-76.516-63.1A158.491,158.491,0,0,1,114.3,171.468,167.164,167.164,0,0,1,124.18,114.4c4.127,31.4,31.183,57.2,63.557,66.424A93.986,93.986,0,0,0,213.4,184.465Z"/><circle class="cls-2" cx="177.031" cy="70.378" r="19.352"/></svg>