<svg id="Layer_1" data-name="Layer 1" xmlns="http://www.w3.org/2000/svg" viewBox="0 0 1200 500"><defs><style>.cls-1{fill:#0f0d3d;}.cls-2{fill:#ed8d37;}.cls-3{fill:none;stroke:#000;stroke-miterlimit:10;}.cls-4{fill:#fbe7b5;}.cls-5{fill:#ff7c31;}</style></defs><title>flyingToucan Final SVG</title><path class="cls-1" d="M39.807,364.246V289.72H22.97v-7.17H39.807v-7.334c0-16.341,6.5-28.178,24.675-28.178a26.956,26.956,0,0,1,16.341,5.668l-4,6c-4.5-2.667-7.669-4.169-12.671-4.169-10.338,0-16.339,6.336-16.339,20.676v7.334H74.987v7.17H47.811v74.526Z"/><path class="cls-1" d="M102.324,247.539V364.246H94.156V247.539Z"/><path class="cls-1" d="M197.187,281.884,147,398.592h-8.669L153.5,363.246l-33.012-81.362h8.838L148.5,330.567l9.67,23.843,9.5-24.01,20.673-48.516Z"/><path class="cls-1" d="M223.856,255.042c0,8.669-13.171,8.669-13.171,0S223.856,246.372,223.856,255.042Zm-10.837,26.509v82.7h8.168V281.551Z"/><path class="cls-1" d="M252.529,281.884v14.673c6.335-11.339,17.84-16.006,29.345-16.175,22.006,0,37.18,13.506,37.18,36.346v47.518h-8.17V316.9c0-18.674-11.5-28.677-29.343-28.511-17.006.167-28.846,13-28.846,30.011v45.849h-8.168V281.884Z"/><path class="cls-1" d="M406.576,278.55l5.335,4.667-8,9.338c5.834,6.335,10.169,14.672,10.169,28.009,0,14.34-8.5,28.844-22.173,35.013,14.5,5.169,22.508,15.338,22.508,29.511,0,22.173-17.342,32.844-39.182,32.844s-39.015-12-39.015-32.844h8.171c0,16.838,14.34,24.842,30.844,24.842s31.178-7.336,31.178-24.842c0-17.674-15.84-24.677-31.178-24.677-23.841,0-38.68-17.838-38.68-39.847,0-25.676,17.339-40.182,38.68-40.182a41.821,41.821,0,0,1,23.342,7.5Zm-61.855,42.014c0,17.006,11.671,31.679,30.511,31.679,17.007,0,30.845-14.673,30.845-31.679,0-20.839-13.838-32.011-30.845-32.011C358.393,288.553,344.721,299.057,344.721,320.564Z"/><path class="cls-2" d="M675.556,255.18v24.842h28.012v6.835H675.556v50.184c0,11.172,2.336,19.007,15.174,19.007a30.558,30.558,0,0,0,12.672-3.334l2.833,6.669c-5.169,2.5-10.336,4.168-15.5,4.168-17.507,0-23.175-10.338-23.175-26.51V286.857H650.049v-6.835h17.506v-24.01Z"/><path class="cls-2" d="M718.567,321.37c0-26.177,18.674-42.85,41.847-42.85s41.85,16.673,41.85,42.85-18.674,42.181-41.85,42.181S718.567,347.545,718.567,321.37Zm75.693,0c0-21.341-15.171-35.179-33.846-35.179s-33.843,13.838-33.843,35.179,15.171,34.179,33.843,34.179S794.26,342.711,794.26,321.37Z"/><path class="cls-2" d="M887.453,362.384V347.545c-6.336,11.338-17.841,16.006-29.343,16.172-22.009,0-37.18-13.5-37.18-36.346V279.855H829.1v47.35c0,18.674,11.5,28.677,29.345,28.511,17.006-.167,28.843-13,28.843-30.011v-45.85h8.171v82.529Z"/><path class="cls-2" d="M984.478,350.879a42.127,42.127,0,0,1-30.01,12.339c-23.176,0-42.349-16.006-42.349-42.016s18.508-42.014,42.349-42.014a42.834,42.834,0,0,1,30.01,12.338l-5.335,5.167a34.918,34.918,0,0,0-24.675-9.836c-18.674,0-34.345,12.172-34.345,34.345s15.671,34.347,34.345,34.347a34.885,34.885,0,0,0,24.509-10.171Z"/><path class="cls-2" d="M1080.34,280.022v82.362h-8.171v-17.5c-8,12.838-20.34,18.838-33.679,18.838-23.007,0-41.848-17.339-41.848-42.515s18.841-42.181,41.848-42.181c13.339,0,26.842,6.17,33.679,19.007V280.022Zm-75.528,41.18c0,20.675,15,34.514,33.678,34.514,45.849,0,45.849-68.859,0-68.859C1019.817,286.857,1004.812,300.529,1004.812,321.2Z"/><path class="cls-2" d="M1110.505,280.022v14.672c6.336-11.338,17.84-16.006,29.345-16.174,22.006,0,37.18,13.5,37.18,36.346v47.518h-8.17V315.035c0-18.675-11.5-28.678-29.343-28.511-17.006.166-28.846,13-28.846,30.01v45.85H1102.5V280.022Z"/><line class="cls-3" x1="414.617" y1="114.4" x2="414.617" y2="114.39"/><path class="cls-1" d="M503.68,143.5c82.748-6.2,154.266,71.984,129.265,144.064-22.758,65.614-80.629,137.724-120.467,183.217a4.926,4.926,0,0,1-8.63-3.254l-.217-310.711"/><path class="cls-4" d="M566.5,248.051a69.978,69.978,0,0,1-62.761,69.542l.1-133.128a93.986,93.986,0,0,1-25.666-3.641C445.8,171.6,418.744,145.8,414.617,114.4v-.01a63.928,63.928,0,0,1-.546-8.3c0-43.376,44.161-78.548,89.769-78.548L503.631,178.6A69.991,69.991,0,0,1,566.5,248.051Z"/><path class="cls-5" d="M503.84,27.534h58.325c73.129,0,109.3,50.867,113.974,115.911l-172.459.05"/><path class="cls-1" d="M621.56,143.461v-78.5c33.525,3.981,49.264,33.69,54.579,78.48Z"/><path class="cls-1" d="M503.84,184.465l-.1,132.021c-31.908-11.1-58.806-33.63-76.516-63.1a158.491,158.491,0,0,1-22.492-81.921,167.164,167.164,0,0,1,9.882-57.068c4.127,31.4,31.183,57.2,63.557,66.424A93.986,93.986,0,0,0,503.84,184.465Z"/><circle class="cls-1" cx="467.468" cy="70.378" r="19.352"/></svg>