<svg id="Layer_1" data-name="Layer 1" xmlns="http://www.w3.org/2000/svg" viewBox="0 0 1200 300"><defs><style>.cls-1{fill:#0f0d3d;}.cls-2{fill:#ed8d37;}</style></defs><title>flyingToucan Final SVG</title><path class="cls-1" d="M75.51,187.126V100.012H55.829V91.631H75.51V83.059c0-19.1,7.6-32.937,28.843-32.937a31.508,31.508,0,0,1,19.1,6.625l-4.678,7.017c-5.261-3.117-8.964-4.873-14.811-4.873-12.084,0-19.1,7.406-19.1,24.168v8.572h31.765v8.381H84.866v87.114Z"/><path class="cls-1" d="M148.585,50.708V187.126h-9.547V50.708Z"/><path class="cls-1" d="M259.47,90.853,200.81,227.272H190.676l17.734-41.315-38.588-95.1h10.331l22.412,56.905,11.3,27.871,11.109-28.065,24.165-56.711Z"/><path class="cls-1" d="M290.644,59.477c0,10.134-15.395,10.134-15.395,0S290.644,49.344,290.644,59.477ZM277.977,90.465v96.661h9.547V90.465Z"/><path class="cls-1" d="M324.159,90.853V108c7.406-13.253,20.853-18.709,34.3-18.906,25.723,0,43.46,15.787,43.46,42.485v55.543h-9.55V131.78c0-21.829-13.448-33.521-34.3-33.326-19.878.194-33.718,15.2-33.718,35.079v53.593h-9.547V90.853Z"/><path class="cls-1" d="M504.224,86.956l6.236,5.456-9.353,10.914c6.82,7.406,11.887,17.151,11.887,32.74,0,16.762-9.94,33.715-25.918,40.927,16.953,6.041,26.309,17.928,26.309,34.5,0,25.918-20.27,38.39-45.8,38.39s-45.6-14.031-45.6-38.39h9.551c0,19.681,16.761,29.037,36.054,29.037s36.442-8.575,36.442-29.037c0-20.659-18.514-28.845-36.442-28.845-27.868,0-45.213-20.851-45.213-46.577,0-30.012,20.267-46.968,45.213-46.968a48.883,48.883,0,0,1,27.284,8.77Zm-72.3,49.11c0,19.879,13.643,37.029,35.666,37.029,19.878,0,36.054-17.15,36.054-37.029,0-24.359-16.176-37.418-36.054-37.418C447.9,98.648,431.921,110.926,431.921,136.066Z"/><path class="cls-2" d="M558,59.542V88.579h32.743v7.989H558v58.661c0,13.058,2.731,22.217,17.737,22.217,4.675,0,9.939-1.558,14.812-3.9l3.311,7.795c-6.042,2.925-12.081,4.872-18.123,4.872-20.465,0-27.09-12.084-27.09-30.987V96.568H528.186V88.579h20.462V60.514Z"/><path class="cls-2" d="M608.276,136.911c0-30.6,21.828-50.087,48.915-50.087s48.918,19.489,48.918,50.087-21.828,49.305-48.918,49.305S608.276,167.507,608.276,136.911Zm88.478,0c0-24.945-17.734-41.12-39.563-41.12s-39.56,16.175-39.56,41.12,17.734,39.952,39.56,39.952S696.754,161.857,696.754,136.911Z"/><path class="cls-2" d="M805.686,184.852V167.507c-7.406,13.253-20.854,18.709-34.3,18.9-25.726,0-43.46-15.784-43.46-42.484V88.385h9.548v55.346c0,21.829,13.448,33.521,34.3,33.326,19.879-.194,33.715-15.2,33.715-35.079V88.385h9.55v96.467Z"/><path class="cls-2" d="M919.1,171.4a49.242,49.242,0,0,1-35.079,14.423c-27.089,0-49.5-18.709-49.5-49.113s21.634-49.11,49.5-49.11A50.069,50.069,0,0,1,919.1,102.027l-6.236,6.039c-7.795-7.8-18.514-11.5-28.843-11.5-21.828,0-40.145,14.229-40.145,40.146s18.317,40.149,40.145,40.149a40.777,40.777,0,0,0,28.649-11.889Z"/><path class="cls-2" d="M1031.15,88.579v96.273h-9.55V164.39c-9.356,15.006-23.776,22.02-39.368,22.02-26.893,0-48.916-20.267-48.916-49.7s22.023-49.3,48.916-49.3c15.592,0,31.376,7.211,39.368,22.217V88.579Zm-88.284,48.135c0,24.168,17.54,40.343,39.366,40.343,53.593,0,53.593-80.489,0-80.489C960.406,96.568,942.866,112.55,942.866,136.714Z"/><path class="cls-2" d="M1066.41,88.579V105.73c7.406-13.253,20.854-18.709,34.3-18.906,25.724,0,43.46,15.786,43.46,42.484v55.544h-9.55V129.506c0-21.829-13.448-33.521-34.3-33.326-19.878.194-33.717,15.2-33.717,35.078v53.594h-9.548V88.579Z"/></svg>